<?xml version="1.0" encoding="UTF-8" standalone="no"?>

<svg
   width="{!svg-width}"
   height="{!svg-height}"
   version="1.1"
   viewBox="0 0 {!svg-width} {!svg-height}"
   xmlns="http://www.w3.org/2000/svg"
>
  <defs>
    <style>
      .text {
        fill:#b0bac5;
        font-family:Inter;
        font-size:18px;
        font-weight: normal;
        font-style: normal;
        font-stretch: normal;
        font-variant: normal;
      }

      .icon {
        fill: #16181c;
      }

      .icon-rect {
        fill: #1bd96a;
      }

      .text-rect {
        fill: #434956;
      }
    </style>
  </defs>
  <g id="text">
    <rect x="0" y="2.5" width="{!text-rect-width}" height="{!text-rect-height==30}" rx="7.225" ry="7.225" class="text-rect"/>
    <text x="{!text-x}" y="{!text-y}" text-anchor="middle" dominant-baseline="middle" class="text">{!text}</text>
  </g>
  <g id="icon">
    <rect width="35" height="35" rx="9" ry="9" class="icon-rect" />
    <g transform="matrix(3.77358490566 0 0 3.77358490566 1.191 1.191)" class="icon">
      <path d="m7.6963 5.2197c0.15118-0.55865 0.1614-1.1634 5.181e-4 -1.7626-0.48618-1.8121-2.3514-2.8876-4.1659-2.4021-1.4005 0.37482-2.3618 1.57-2.5038 2.9292h0.57471c0.13671-1.1035 0.92578-2.0671 2.0674-2.3727 1.4109-0.37761 2.8587 0.38438 3.3636 1.7211l-0.55932 0.14958c-0.25736-0.62183-0.77593-1.0778-1.3901-1.2719l-0.10273 0.58188c0.48486 0.17879 0.87813 0.58188 1.022 1.1182 0.20971 0.78164-0.18078 1.5825-0.88928 1.9147l0.15304 0.5706c0.93122-0.38425 1.4907-1.352 1.3583-2.3496l0.55719-0.14905c0.059727 0.38106 0.03902 0.75987-0.051234 1.117z" />
      <path d="m5.2917 7.6176c-1.8147 0.48552-3.6798-0.58998-4.1661-2.4021-0.056675-0.21144-0.092115-0.42354-0.10764-0.63418h0.57432c0.014468 0.15808 0.042473 0.31709 0.085077 0.47557 0.044598 0.16604 0.10313 0.32465 0.17401 0.4749l0.5122-0.30727c-0.043138-0.099546-0.079504-0.20334-0.10844-0.31125-0.31908-1.1892 0.38757-2.4117 1.5784-2.7304 0.22564-0.060391 0.4526-0.083884 0.67426-0.07446l-0.10273 0.58201c-0.13883 6.594e-4 -0.27979 0.018848-0.42022 0.056409-0.87893 0.23533-1.4005 1.1375-1.1651 2.0153 0.014599 0.054021 0.031592 0.10671 0.050968 0.15795l0.65501-0.39301-0.19737-0.52335 0.61851-0.63537 0.78177-0.16843 0.2263 0.2786-0.36036 0.365-0.3143 0.098882-0.22458 0.23081 0.11003 0.3062s0.22285 0.23679 0.22325 0.23692l0.31483-0.083752 0.22405-0.24608 0.48924-0.15489 0.14574 0.32784-0.50477 0.61891-0.84588 0.26785-0.37934-0.42234-0.66125 0.39672c0.33899 0.38597 0.84866 0.60033 1.3771 0.5556l0.15304 0.5706c-0.78854 0.10432-1.5588-0.22205-2.0372-0.82172l-0.50981 0.30581c0.67174 0.88251 1.8343 1.3197 2.9727 1.0151 0.81946-0.21927 1.4572-0.77779 1.8026-1.4836l0.56595 0.20573c-0.41 0.87972-1.1924 1.5787-2.2042 1.8494z" />
    </g>
  </g>
</svg>
